<svg id="Logo" xmlns="http://www.w3.org/2000/svg" width="110" height="110" viewBox="0 0 110 110">
  <rect id="Прямоугольник_1" data-name="Прямоугольник 1" width="110" height="110" fill="none"/>
  <g id="icons8-region" transform="translate(20 5)">
    <path id="Контур_23" data-name="Контур 23" d="M45,4A35.1,35.1,0,0,0,10,39c0,19.25,35,65,35,65S80,58.25,80,39A35.1,35.1,0,0,0,45,4Z" transform="translate(-10 -4)" fill="#9c27b0"/>
    <path id="Контур_24" data-name="Контур 24" d="M31.374,29.585A7.494,7.494,0,1,1,38.869,37.1,7.37,7.37,0,0,1,31.374,29.585ZM51.11,17.313a17.722,17.722,0,0,1,0,24.8,6.627,6.627,0,0,1-1.5,1.252l4.746,5.761a14.292,14.292,0,0,0,2-1.753,24.988,24.988,0,0,0,0-35.315,12.521,12.521,0,0,0-2-1.753l-4.746,5.761A2.56,2.56,0,0,1,51.11,17.313ZM26.628,41.858a16.313,16.313,0,0,1-5.246-12.273,16.313,16.313,0,0,1,5.246-12.273,6.627,6.627,0,0,1,1.5-1.252L23.38,10.3a14.291,14.291,0,0,0-2,1.753,24.988,24.988,0,0,0,0,35.315,12.521,12.521,0,0,0,2,1.753l4.746-5.761A4.247,4.247,0,0,1,26.628,41.858Z" transform="translate(-3.869 5.432)" fill="#f3e5f5"/>
  </g>
</svg>
